<svg width="20" height="20" viewBox="0 0 20 20" fill="none" xmlns="http://www.w3.org/2000/svg">
<path d="M17.9702 12.9948L14.1138 11.2666C13.9391 11.1917 13.7484 11.1616 13.5591 11.179C13.3698 11.1964 13.1878 11.2607 13.0297 11.3662C13.0136 11.3765 12.9983 11.3879 12.984 11.4004L10.9684 13.1148C10.9475 13.1262 10.9242 13.1326 10.9004 13.1334C10.8766 13.1343 10.8529 13.1296 10.8312 13.1197C9.53567 12.4944 8.19359 11.1604 7.56581 9.88284C7.55536 9.86149 7.54992 9.83804 7.54992 9.81427C7.54992 9.7905 7.55536 9.76704 7.56581 9.74569L9.28587 7.70481C9.29821 7.68971 9.30966 7.6739 9.32016 7.65746C9.42415 7.49868 9.48697 7.31651 9.50293 7.12738C9.51889 6.93825 9.4875 6.74812 9.41159 6.57416L7.69561 2.72423C7.59816 2.49697 7.42963 2.30744 7.21532 2.18409C7.001 2.06074 6.75246 2.01022 6.507 2.04013C5.44021 2.18037 4.46098 2.70426 3.75231 3.51389C3.04364 4.32352 2.65402 5.36349 2.65626 6.43946C2.65626 12.8315 7.85643 18.0317 14.2485 18.0317C15.3244 18.0337 16.3643 17.6441 17.1739 16.9354C17.9835 16.2268 18.5074 15.2477 18.6478 14.1809C18.6777 13.9366 18.6278 13.6892 18.5057 13.4755C18.3837 13.2618 18.1959 13.0932 17.9702 12.9948ZM14.2485 17.0521C8.39686 17.0521 3.63588 12.2911 3.63588 6.43946C3.63316 5.60182 3.93549 4.79184 4.4864 4.16086C5.03731 3.52988 5.7991 3.12105 6.62945 3.01077H6.64823C6.68113 3.01139 6.71307 3.02193 6.73988 3.04101C6.76668 3.06009 6.78709 3.08683 6.79844 3.11771L8.52095 6.96356C8.53077 6.98494 8.53586 7.00819 8.53586 7.03172C8.53586 7.05525 8.53077 7.07851 8.52095 7.09989L6.79762 9.14567C6.78477 9.16028 6.77303 9.17583 6.76252 9.1922C6.65468 9.35683 6.59118 9.54651 6.57817 9.74288C6.56515 9.93924 6.60307 10.1356 6.68823 10.3131C7.41234 11.7956 8.90627 13.2781 10.4051 14.0022C10.5835 14.0869 10.7809 14.1239 10.9779 14.1095C11.1749 14.0952 11.3649 14.0301 11.5292 13.9205C11.5447 13.9099 11.5602 13.8985 11.5749 13.8862L13.5897 12.1719C13.6096 12.1612 13.6316 12.1549 13.6541 12.1535C13.6767 12.1521 13.6992 12.1556 13.7203 12.1637L17.5776 13.892C17.6091 13.9054 17.6356 13.9284 17.6533 13.9577C17.671 13.987 17.6791 14.0211 17.6764 14.0552C17.5667 14.886 17.1582 15.6483 16.5274 16.1998C15.8965 16.7514 15.0864 17.0543 14.2485 17.0521Z" fill="#454545"/>
</svg>
