<svg width="36" height="36" viewBox="0 0 36 36" fill="none" xmlns="http://www.w3.org/2000/svg">
<path fill-rule="evenodd" clip-rule="evenodd" d="M20.5404 12.462C20.5404 13.8002 19.424 14.9239 17.9983 14.9239C16.5727 14.9239 15.4563 13.8002 15.4563 12.462C15.4563 11.1237 16.5727 10 17.9983 10C19.424 10 20.5404 11.1237 20.5404 12.462ZM21.5404 12.462C21.5404 14.374 19.9546 15.9239 17.9983 15.9239C16.0421 15.9239 14.4563 14.374 14.4563 12.462C14.4563 10.55 16.0421 9 17.9983 9C19.9546 9 21.5404 10.55 21.5404 12.462ZM9.99778 27C10.6955 16.544 25.3042 16.544 26.0019 27L26.9997 26.9334C26.219 15.2328 9.78074 15.2328 9 26.9334L9.99778 27Z" fill="black"/>
</svg>
