<svg width="36" height="36" viewBox="0 0 36 36" fill="none" xmlns="http://www.w3.org/2000/svg">
<path fill-rule="evenodd" clip-rule="evenodd" d="M22.2391 16.6032C22.2391 19.6955 19.7254 22.2065 16.6195 22.2065C13.5136 22.2065 11 19.6955 11 16.6032C11 13.511 13.5136 11 16.6195 11C19.7254 11 22.2391 13.511 22.2391 16.6032ZM21.51 21.0534C20.2995 22.3764 18.5567 23.2065 16.6195 23.2065C12.9637 23.2065 10 20.2501 10 16.6032C10 12.9564 12.9637 10 16.6195 10C20.2754 10 23.2391 12.9564 23.2391 16.6032C23.2391 17.9586 22.8297 19.2185 22.1277 20.2668L26.9993 24.225L26.3687 25.0012L21.51 21.0534Z" fill="black"/>
</svg>
