<svg width="32" height="32" viewBox="0 0 32 32" fill="none" xmlns="http://www.w3.org/2000/svg">
<path d="M15.9973 12.6651C14.1611 12.6651 12.6626 14.1636 12.6626 15.9998C12.6626 17.836 14.1611 19.3345 15.9973 19.3345C17.8335 19.3345 19.332 17.836 19.332 15.9998C19.332 14.1636 17.8335 12.6651 15.9973 12.6651ZM25.9989 15.9998C25.9989 14.6189 26.0114 13.2505 25.9338 11.8721C25.8563 10.271 25.4911 8.85012 24.3203 7.67935C23.147 6.50608 21.7286 6.14334 20.1275 6.06579C18.7466 5.98824 17.3782 6.00074 15.9998 6.00074C14.6189 6.00074 13.2505 5.98824 11.8721 6.06579C10.271 6.14334 8.85012 6.50858 7.67935 7.67935C6.50608 8.85262 6.14334 10.271 6.06579 11.8721C5.98824 13.253 6.00074 14.6214 6.00074 15.9998C6.00074 17.3782 5.98824 18.7491 6.06579 20.1275C6.14334 21.7286 6.50858 23.1495 7.67935 24.3203C8.85262 25.4936 10.271 25.8563 11.8721 25.9338C13.253 26.0114 14.6214 25.9989 15.9998 25.9989C17.3807 25.9989 18.7491 26.0114 20.1275 25.9338C21.7286 25.8563 23.1495 25.4911 24.3203 24.3203C25.4936 23.147 25.8563 21.7286 25.9338 20.1275C26.0139 18.7491 25.9989 17.3807 25.9989 15.9998ZM15.9973 21.1307C13.1579 21.1307 10.8664 18.8392 10.8664 15.9998C10.8664 13.1604 13.1579 10.8689 15.9973 10.8689C18.8367 10.8689 21.1282 13.1604 21.1282 15.9998C21.1282 18.8392 18.8367 21.1307 15.9973 21.1307ZM21.3383 11.8571C20.6754 11.8571 20.14 11.3217 20.14 10.6588C20.14 9.99587 20.6754 9.46052 21.3383 9.46052C22.0013 9.46052 22.5366 9.99587 22.5366 10.6588C22.5368 10.8162 22.5059 10.9721 22.4458 11.1176C22.3856 11.2631 22.2974 11.3953 22.1861 11.5066C22.0748 11.6179 21.9426 11.7061 21.7971 11.7663C21.6516 11.8264 21.4957 11.8573 21.3383 11.8571Z" fill="#CBC1B6"/>
</svg>
