<svg width="72" height="72" viewBox="0 0 72 72" fill="none" xmlns="http://www.w3.org/2000/svg">
<path d="M38.2143 19.4608C38.2143 20.0823 38.1502 20.6874 38.0288 21.2696C35.9979 19.3611 33.1914 18.1904 30.1071 18.1904C27.0229 18.1904 24.2164 19.3611 22.1855 21.2696C22.0641 20.6874 22 20.0823 22 19.4608C22 14.7518 25.6653 11 30.1071 11C34.549 11 38.2143 14.7518 38.2143 19.4608ZM33.7857 30.5392C33.7857 29.9177 33.8498 29.3126 33.9712 28.7304C36.0021 30.6389 38.8086 31.8096 41.8929 31.8096C44.9771 31.8096 47.7836 30.6389 49.8145 28.7304C49.9359 29.3126 50 29.9177 50 30.5392C50 35.2482 46.3347 39 41.8929 39C37.451 39 33.7857 35.2482 33.7857 30.5392ZM41.3842 27.398C40.7663 27.3991 40.1646 27.3349 39.5857 27.2122C41.4838 25.1582 42.643 22.3195 42.6374 19.2053C42.6318 16.091 41.4624 13.2566 39.5569 11.2095C40.1354 11.0847 40.7369 11.0183 41.3549 11.0171C45.9991 11.0086 49.7365 14.6874 49.7446 19.1922C49.7526 23.697 46.0285 27.3895 41.3842 27.398ZM32.1754 38.5651C31.5965 38.6878 30.9948 38.752 30.3768 38.7509C25.7326 38.7424 22.0084 35.0499 22.0165 30.5451C22.0246 26.0403 25.7619 22.3615 30.4061 22.37C31.0241 22.3712 31.6256 22.4376 32.2041 22.5624C30.2986 24.6095 29.1292 27.4439 29.1236 30.5582C29.118 33.6724 30.2773 36.5111 32.1754 38.5651Z" fill="#9E9283" stroke="#9E9283" stroke-width="2"/>
<path d="M19.1588 48.7144C19.2425 48.9054 19.415 49.0009 19.6763 49.0009C19.972 49.0009 20.2086 48.8577 20.386 48.5712C20.5092 48.3754 20.5708 48.1271 20.5708 47.8263C20.5708 47.3823 20.4501 47.0576 20.2086 46.8523C20.0262 46.6995 19.7945 46.6231 19.5136 46.6231C19.4495 46.6231 19.383 46.6279 19.314 46.6374L18.8187 46.709V50.9132C18.8187 51.0421 18.8655 51.1495 18.9591 51.2355C19.0528 51.3214 19.1637 51.3644 19.2918 51.3644H19.3879V51.436H17.1405V51.3644H17.2366C17.3647 51.3644 17.4732 51.3214 17.5619 51.2355C17.6555 51.1495 17.7048 51.0421 17.7097 50.9132V47.0958C17.7048 46.9717 17.6654 46.8738 17.5914 46.8021C17.5224 46.7305 17.4189 46.6947 17.2809 46.6947C17.2464 46.6947 17.2021 46.6971 17.1479 46.7019L17.1331 46.6374C17.552 46.604 17.9907 46.5491 18.449 46.4727C18.9123 46.3915 19.2154 46.3414 19.3584 46.3223C19.5062 46.3032 19.6541 46.2936 19.8019 46.2936C19.9547 46.2936 20.1371 46.3104 20.349 46.3438C20.561 46.3724 20.7778 46.4417 20.9996 46.5515C21.2214 46.6565 21.4013 46.8141 21.5393 47.0242C21.6822 47.2534 21.7537 47.5136 21.7537 47.8048C21.7537 48.0913 21.6995 48.3444 21.591 48.564C21.384 48.9842 21.0292 49.2516 20.5265 49.3662C20.4032 49.3948 20.2849 49.4091 20.1716 49.4091C20.0632 49.4091 19.9597 49.3996 19.8611 49.3805C19.659 49.3518 19.489 49.285 19.351 49.1799C19.213 49.0749 19.1267 48.9293 19.0922 48.7431L19.1588 48.7144Z" fill="white"/>
<path d="M24.576 48.2346C24.4872 48.0531 24.4429 47.8812 24.4429 47.7189C24.4429 47.5518 24.4651 47.399 24.5094 47.2605C24.5538 47.1173 24.6277 46.9788 24.7312 46.8451C24.8347 46.7067 24.9801 46.5921 25.1674 46.5013C25.4237 46.3724 25.7317 46.308 26.0915 46.308C26.5647 46.308 27.0132 46.4249 27.437 46.6589C27.994 46.9645 28.3809 47.387 28.5977 47.9266C28.721 48.2226 28.7826 48.5401 28.7826 48.8791C28.7826 49.6765 28.4844 50.3187 27.888 50.8057C27.2966 51.2927 26.5228 51.5363 25.5666 51.5363C24.6154 51.5363 23.8391 51.2927 23.2378 50.8057C22.6415 50.3187 22.3433 49.6789 22.3433 48.8863C22.3433 48.2942 22.5158 47.781 22.8608 47.3465C23.2107 46.9072 23.6814 46.6088 24.2728 46.4512L24.3172 46.5157C24.0658 46.721 23.8761 47.0218 23.7479 47.4181C23.6198 47.8144 23.5557 48.2417 23.5557 48.7001C23.5557 49.4736 23.7406 50.0895 24.1102 50.5479C24.4799 51.0063 24.9629 51.2355 25.5592 51.2355C26.1605 51.2355 26.6435 51.0206 27.0083 50.5909C27.3779 50.1564 27.5627 49.5834 27.5627 48.872C27.5627 48.4423 27.4937 48.0555 27.3557 47.7117C27.2227 47.3632 27.028 47.0958 26.7717 46.9096C26.5154 46.7186 26.2295 46.6231 25.9141 46.6231C25.5642 46.6231 25.2808 46.7114 25.0639 46.8881C24.7583 47.1412 24.6055 47.4634 24.6055 47.855C24.6055 47.9791 24.6228 48.1056 24.6573 48.2346H24.576Z" fill="white"/>
<path d="M28.9253 48.0913C28.6838 47.8669 28.5631 47.6258 28.5631 47.368C28.5631 47.1674 28.6296 46.9931 28.7627 46.8451C29.0141 46.5586 29.3665 46.4154 29.8199 46.4154H33.302C33.5189 46.4106 33.7086 46.3939 33.8713 46.3653C34.0339 46.3318 34.1374 46.3056 34.1818 46.2865V47.5327H34.1078V47.4467C34.1078 47.2319 34.0413 47.0576 33.9082 46.9239C33.7751 46.7902 33.5952 46.721 33.3685 46.7162H32.3705V50.9203C32.3803 51.0922 32.4617 51.2211 32.6144 51.3071C32.6834 51.3453 32.7598 51.3644 32.8436 51.3644H32.9397V51.436H30.6923V51.3644H30.7884C30.9165 51.3644 31.025 51.3214 31.1137 51.2355C31.2073 51.1495 31.2566 51.0469 31.2615 50.9275V46.7162H29.8199C29.6178 46.7162 29.4404 46.752 29.2876 46.8236C28.9771 46.9669 28.8218 47.1913 28.8218 47.4969C28.8218 47.6783 28.881 47.8645 28.9993 48.0555L28.9253 48.0913Z" fill="white"/>
<path d="M34.4484 48.0913C34.2069 47.8669 34.0862 47.6258 34.0862 47.368C34.0862 47.1674 34.1527 46.9931 34.2858 46.8451C34.5371 46.5586 34.8895 46.4154 35.343 46.4154H38.8251C39.0419 46.4106 39.2317 46.3939 39.3943 46.3653C39.557 46.3318 39.6605 46.3056 39.7048 46.2865V47.5327H39.6309V47.4467C39.6309 47.2319 39.5644 47.0576 39.4313 46.9239C39.2982 46.7902 39.1183 46.721 38.8916 46.7162H37.8936V50.9203C37.9034 51.0922 37.9847 51.2211 38.1375 51.3071C38.2065 51.3453 38.2829 51.3644 38.3667 51.3644H38.4628V51.436H36.2153V51.3644H36.3115C36.4396 51.3644 36.548 51.3214 36.6368 51.2355C36.7304 51.1495 36.7797 51.0469 36.7846 50.9275V46.7162H35.343C35.1409 46.7162 34.9635 46.752 34.8107 46.8236C34.5002 46.9669 34.3449 47.1913 34.3449 47.4969C34.3449 47.6783 34.4041 47.8645 34.5224 48.0555L34.4484 48.0913Z" fill="white"/>
<path d="M40.202 51.3644C40.3301 51.3644 40.4385 51.3214 40.5273 51.2355C40.6209 51.1447 40.6702 51.0373 40.6751 50.9132V46.9239C40.6603 46.7568 40.579 46.6326 40.4311 46.5515C40.3572 46.5133 40.2808 46.4942 40.202 46.4942H40.1059V46.4226H42.1833C42.4001 46.4226 42.5899 46.4058 42.7525 46.3724C42.9152 46.339 43.0212 46.3127 43.0704 46.2936V47.547H42.9891V47.4611C42.994 47.2462 42.93 47.0743 42.7969 46.9454C42.6688 46.8117 42.4938 46.7401 42.272 46.7305H41.7841V48.8147H42.9595C43.1419 48.8099 43.2922 48.7502 43.4105 48.6356C43.5288 48.5163 43.5879 48.3706 43.5879 48.1987V48.1343H43.6545V49.7887H43.5879V49.7314C43.5879 49.5548 43.5288 49.4091 43.4105 49.2945C43.2922 49.1799 43.1444 49.1203 42.9669 49.1155H41.7841V51.128H43.2257C43.5855 51.128 43.8861 51.0278 44.1276 50.8272C44.3741 50.6267 44.5564 50.3426 44.6747 49.9749H44.7486L44.4012 51.436H40.1059V51.3644H40.202Z" fill="white"/>
<path d="M52.7406 52.6535C52.3561 52.8397 51.9471 52.9329 51.5133 52.9329C51.1289 52.9329 50.779 52.8756 50.4635 52.761C49.7834 52.5175 49.2043 52.0424 48.7262 51.3357C48.603 51.1638 48.3738 50.8344 48.0386 50.3474C47.7035 49.8603 47.4866 49.55 47.3881 49.4163C47.2156 49.1537 47.0775 49.0104 46.974 48.9866V48.915C46.979 48.915 46.9839 48.915 46.9888 48.915C46.9987 48.915 47.0085 48.915 47.0184 48.915C47.0283 48.915 47.0381 48.915 47.048 48.915C47.0578 48.915 47.0702 48.915 47.0849 48.915C47.0997 48.915 47.112 48.915 47.1219 48.915C47.3733 48.915 47.6049 48.86 47.8169 48.7502C48.1372 48.5783 48.2974 48.2608 48.2974 47.7977C48.2974 47.4587 48.1988 47.1984 48.0017 47.017C47.8045 46.8308 47.568 46.7377 47.2919 46.7377H46.7301V50.9132C46.7301 51.0373 46.7769 51.1447 46.8705 51.2355C46.9642 51.3214 47.0751 51.3644 47.2032 51.3644H47.2993V51.436H45.0519V51.3644H45.148C45.2712 51.3644 45.3796 51.3214 45.4733 51.2355C45.5669 51.1495 45.6162 51.0445 45.6211 50.9203V46.9454C45.6162 46.8212 45.5669 46.7162 45.4733 46.6303C45.3846 46.5395 45.2761 46.4942 45.148 46.4942H45.0519V46.4226H47.5877C48.2235 46.4226 48.7163 46.5634 49.0663 46.8451C49.3423 47.0648 49.4803 47.3751 49.4803 47.7762C49.4803 48.1773 49.3447 48.5043 49.0737 48.7574C48.8075 49.0057 48.5019 49.1298 48.1569 49.1298C48.1274 49.1298 48.0953 49.1274 48.0608 49.1227C48.2629 49.2277 48.4305 49.3447 48.5635 49.4736C48.7015 49.6025 48.8198 49.7243 48.9184 49.8389C49.0219 49.9534 49.1082 50.0561 49.1772 50.1468C49.2511 50.2328 49.3472 50.3497 49.4655 50.4978C49.5838 50.641 49.707 50.7914 49.8351 50.949C49.9633 51.1065 50.1037 51.2689 50.2565 51.436C50.4142 51.5983 50.5868 51.7535 50.774 51.9015C50.9663 52.0495 51.1609 52.1713 51.3581 52.2668C51.777 52.4721 52.2379 52.5771 52.7406 52.5819V52.6535Z" fill="white"/>
<path d="M49.2704 46.0072C49.3493 46.0024 49.475 46 49.6475 46C49.8151 46 50.0368 46.0358 50.3128 46.1074C50.5938 46.1743 50.8525 46.2817 51.0891 46.4297C51.3257 46.5777 51.5425 46.7568 51.7397 46.9669C52.1044 47.3584 52.3903 47.8287 52.5973 48.3778C52.893 47.5613 53.2774 46.9358 53.7506 46.5013C54.1104 46.1719 54.5071 46.0072 54.9409 46.0072C54.9606 46.0072 54.9803 46.0072 55 46.0072V46.0788C54.7536 46.0836 54.4973 46.2101 54.2311 46.4584C53.9699 46.7019 53.7407 46.9979 53.5436 47.3465C53.3464 47.695 53.1789 48.0579 53.0409 48.4351C52.9078 48.8123 52.8289 49.1394 52.8043 49.4163V50.9132C52.8043 51.0325 52.8486 51.1376 52.9374 51.2283C53.031 51.319 53.1444 51.3644 53.2774 51.3644H53.3735V51.436H51.1261V51.3644H51.2222C51.3503 51.3644 51.4588 51.3214 51.5475 51.2355C51.6411 51.1447 51.6904 51.0373 51.6953 50.9132V49.4091C51.6362 48.8935 51.4588 48.3468 51.163 47.769C50.823 47.1006 50.441 46.6255 50.0171 46.3438C49.7707 46.1767 49.5218 46.0883 49.2704 46.0788V46.0072Z" fill="white"/>
<path d="M17.5027 59.2498C17.3056 59.5554 17.207 59.8681 17.207 60.188C17.207 60.5366 17.3376 60.8541 17.5988 61.1406C17.7418 61.3029 17.9217 61.4294 18.1385 61.5201C18.3603 61.6109 18.6018 61.6562 18.863 61.6562C19.1243 61.6562 19.3584 61.6085 19.5654 61.513C19.9794 61.3172 20.1864 60.9973 20.1864 60.5533C20.1864 60.3862 20.1272 60.2095 20.0089 60.0233C19.8956 59.8371 19.7231 59.6699 19.4914 59.5219L18.2346 58.7055C17.7467 58.4094 17.5027 58.0275 17.5027 57.5595C17.5027 57.5118 17.5052 57.464 17.5101 57.4163C17.5397 57.0486 17.69 56.7502 17.9611 56.521C18.2371 56.2871 18.6043 56.1701 19.0626 56.1701C19.3436 56.1701 19.6837 56.194 20.0829 56.2417H20.5412L20.4451 57.2945H20.3786C20.3737 57.0463 20.2751 56.8481 20.0829 56.7001C19.8907 56.5473 19.6368 56.4709 19.3214 56.4709C18.937 56.4709 18.6585 56.5831 18.486 56.8075C18.4022 56.9221 18.3603 57.0463 18.3603 57.1799C18.3603 57.3136 18.4022 57.4282 18.486 57.5237C18.5698 57.6144 18.7029 57.7147 18.8852 57.8245L20.2677 58.6983C20.5486 58.875 20.768 59.0827 20.9257 59.3214C21.113 59.6031 21.2066 59.892 21.2066 60.188C21.2066 60.379 21.1647 60.5819 21.0809 60.7968C21.0021 61.0069 20.869 61.2026 20.6817 61.3841C20.4993 61.5655 20.2628 61.7135 19.972 61.8281C19.6812 61.9427 19.3584 62 19.0035 62C18.6536 62 18.3357 61.9403 18.0498 61.8209C17.5224 61.6061 17.1873 61.2313 17.0444 60.6965C17.0148 60.5819 17 60.4625 17 60.3384C17 59.9373 17.1454 59.5577 17.4362 59.1996L17.5027 59.2498Z" fill="white"/>
<path d="M21.2291 57.9391C20.9876 57.7147 20.8669 57.4736 20.8669 57.2158C20.8669 57.0152 20.9334 56.8409 21.0665 56.6929C21.3178 56.4064 21.6702 56.2632 22.1237 56.2632H25.6058C25.8226 56.2584 26.0124 56.2417 26.175 56.2131C26.3377 56.1796 26.4412 56.1534 26.4855 56.1343V57.3805H26.4116V57.2945C26.4116 57.0797 26.3451 56.9054 26.212 56.7717C26.0789 56.638 25.899 56.5688 25.6723 56.564H24.6743V60.7681C24.6841 60.94 24.7654 61.0689 24.9182 61.1549C24.9872 61.1931 25.0636 61.2122 25.1474 61.2122H25.2435V61.2838H22.9961V61.2122H23.0922C23.2203 61.2122 23.3287 61.1692 23.4175 61.0833C23.5111 60.9973 23.5604 60.8947 23.5653 60.7753V56.564H22.1237C21.9216 56.564 21.7442 56.5998 21.5914 56.6714C21.2809 56.8147 21.1256 57.0391 21.1256 57.3447C21.1256 57.5261 21.1848 57.7123 21.3031 57.9033L21.2291 57.9391Z" fill="white"/>
<path d="M33.3037 54.8165C33.3677 54.8165 33.4343 54.8189 33.5033 54.8236V54.8953C32.9217 54.9382 32.5028 55.2056 32.2465 55.6974C32.0789 56.0173 31.9951 56.4232 31.9951 56.915V59.4718C31.9853 60.0734 31.7856 60.5437 31.3963 60.8827C31.0069 61.217 30.45 61.3841 29.7255 61.3841C29.0059 61.3841 28.4317 61.2122 28.0029 60.8684C27.5741 60.5198 27.3622 60.0567 27.3671 59.479V56.6929C27.3671 56.5927 27.3277 56.5091 27.2488 56.4423C27.1749 56.3754 27.0837 56.342 26.9753 56.342H26.857V56.2704H28.9862V56.342H28.8679C28.7151 56.342 28.6017 56.3993 28.5278 56.5139C28.4933 56.5664 28.476 56.6237 28.476 56.6858V59.4217C28.476 59.9278 28.6116 60.3289 28.8827 60.6249C29.1537 60.9209 29.5111 61.0689 29.9546 61.0689C29.9596 61.0689 29.962 61.0689 29.962 61.0689C29.962 61.0689 29.9645 61.0689 29.9694 61.0689C30.4081 61.0689 30.7679 60.9305 31.0488 60.6535C31.3297 60.3766 31.4702 59.997 31.4702 59.5148V56.915C31.4702 56.2704 31.6452 55.7595 31.9951 55.3823C32.35 55.0051 32.7862 54.8165 33.3037 54.8165Z" fill="white"/>
<path d="M34.1998 56.2632C34.2836 56.2632 34.4364 56.2632 34.6582 56.2632C34.88 56.2632 35.2915 56.2656 35.8928 56.2704C36.7652 56.2799 37.4552 56.5091 37.9629 56.9579C38.4705 57.402 38.7243 58.0107 38.7243 58.7842C38.7243 59.553 38.4705 60.1617 37.9629 60.6106C37.4552 61.0594 36.7652 61.2838 35.8928 61.2838H33.2092V61.2122H33.3053C33.4285 61.2122 33.5345 61.1716 33.6232 61.0904C33.7168 61.0045 33.7686 60.9018 33.7784 60.7825V56.5927C33.2264 56.6309 32.8173 56.755 32.5512 56.9651C32.4181 57.0654 32.3146 57.168 32.2407 57.2731C32.1618 57.3781 32.0854 57.5046 32.0115 57.6526L31.9376 57.624C32.0559 57.1465 32.3023 56.8027 32.6769 56.5927C33.0564 56.3778 33.564 56.268 34.1998 56.2632ZM35.8041 60.983C36.3315 60.983 36.748 60.7848 37.0535 60.3885C37.364 59.9922 37.5193 59.4551 37.5193 58.7771C37.5193 58.0991 37.364 57.5643 37.0535 57.1728C36.748 56.7813 36.3364 56.5855 35.8189 56.5855C35.814 56.5855 35.809 56.5855 35.8041 56.5855H34.8874V60.983H35.8041Z" fill="white"/>
<path d="M42.0313 61.2122H42.1274V61.2838H39.8799V61.2122H39.976C40.1042 61.2122 40.2126 61.1692 40.3013 61.0833C40.3949 60.9925 40.4442 60.8851 40.4492 60.761V56.564L39.7468 56.5927C39.2835 56.6118 39.0519 56.7789 39.0519 57.094C39.0519 57.2229 39.0962 57.3327 39.185 57.4235C39.2786 57.5094 39.4068 57.5524 39.5694 57.5524C39.5842 57.5524 39.599 57.5524 39.6138 57.5524V57.5953C39.5152 57.6288 39.4314 57.6455 39.3624 57.6455C39.1406 57.6455 38.9706 57.5691 38.8523 57.4163C38.7685 57.3113 38.7266 57.1919 38.7266 57.0582C38.7266 56.8481 38.8128 56.6762 38.9854 56.5425C39.1529 56.4041 39.4141 56.3229 39.769 56.299C39.8331 56.2942 40.0401 56.2847 40.39 56.2704C41.1885 56.2417 41.7676 56.194 42.1274 56.1271L42.1422 56.1987C41.9302 56.2322 41.7799 56.3014 41.6912 56.4064C41.6074 56.5115 41.563 56.6667 41.5581 56.872V60.761C41.563 60.8851 41.6099 60.9925 41.6986 61.0833C41.7922 61.1692 41.9031 61.2122 42.0313 61.2122Z" fill="white"/>
<path d="M44.7262 58.0824C44.6375 57.9009 44.5931 57.729 44.5931 57.5667C44.5931 57.3996 44.6153 57.2468 44.6596 57.1083C44.704 56.9651 44.7779 56.8266 44.8814 56.6929C44.9849 56.5545 45.1303 56.4399 45.3176 56.3491C45.5739 56.2202 45.8819 56.1558 46.2417 56.1558C46.7149 56.1558 47.1634 56.2728 47.5873 56.5067C48.1442 56.8123 48.5311 57.2349 48.748 57.7744C48.8712 58.0704 48.9328 58.3879 48.9328 58.7269C48.9328 59.5243 48.6346 60.1665 48.0382 60.6535C47.4468 61.1406 46.673 61.3841 45.7168 61.3841C44.7656 61.3841 43.9893 61.1406 43.388 60.6535C42.7917 60.1665 42.4935 59.5267 42.4935 58.7341C42.4935 58.142 42.666 57.6288 43.011 57.1943C43.3609 56.755 43.8316 56.4566 44.4231 56.299L44.4674 56.3635C44.2161 56.5688 44.0263 56.8696 43.8982 57.2659C43.77 57.6622 43.7059 58.0895 43.7059 58.5479C43.7059 59.3214 43.8908 59.9373 44.2604 60.3957C44.6301 60.8541 45.1131 61.0833 45.7094 61.0833C46.3107 61.0833 46.7938 60.8684 47.1585 60.4387C47.5281 60.0042 47.7129 59.4312 47.7129 58.7198C47.7129 58.2901 47.6439 57.9033 47.5059 57.5595C47.3729 57.211 47.1782 56.9436 46.9219 56.7574C46.6656 56.5664 46.3797 56.4709 46.0643 56.4709C45.7144 56.4709 45.431 56.5592 45.2141 56.7359C44.9085 56.989 44.7557 57.3113 44.7557 57.7028C44.7557 57.8269 44.773 57.9534 44.8075 58.0824H44.7262Z" fill="white"/>
</svg>
