<svg width="346" height="44" viewBox="0 0 346 44" fill="none" xmlns="http://www.w3.org/2000/svg">
<rect x="0.5" y="0.5" width="345" height="43" stroke="#B6AFAF"/>
<path d="M117.306 20.0415H116.5V20H107.5V24H113.152C112.327 26.3285 110.111 28 107.5 28C104.187 28 101.5 25.3135 101.5 22C101.5 18.6865 104.187 16 107.5 16C109.03 16 110.421 16.577 111.481 17.5195L114.309 14.691C112.523 13.0265 110.134 12 107.5 12C101.977 12 97.5 16.4775 97.5 22C97.5 27.5225 101.977 32 107.5 32C113.023 32 117.5 27.5225 117.5 22C117.5 21.3295 117.431 20.675 117.306 20.0415Z" fill="#FFC107"/>
<path d="M98.653 17.3455L101.938 19.755C102.827 17.554 104.98 16 107.5 16C109.029 16 110.421 16.577 111.48 17.5195L114.309 14.691C112.523 13.0265 110.134 12 107.5 12C103.659 12 100.328 14.1685 98.653 17.3455Z" fill="#FF3D00"/>
<path d="M107.5 32C110.083 32 112.43 31.0115 114.205 29.404L111.11 26.785C110.072 27.5742 108.804 28.001 107.5 28C104.899 28 102.691 26.3415 101.859 24.027L98.5975 26.5395C100.253 29.778 103.614 32 107.5 32Z" fill="#4CAF50"/>
<path d="M117.306 20.0414H116.5V19.9999H107.5V23.9999H113.152C112.757 25.1081 112.047 26.0765 111.108 26.7854L111.109 26.7844L114.205 29.4034C113.986 29.6024 117.5 26.9999 117.5 21.9999C117.5 21.3294 117.431 20.6749 117.306 20.0414Z" fill="#1976D2"/>
<path d="M132.867 27V17.0059H134.029V25.9609H138.466V27H132.867ZM146.471 23.2402C146.471 23.8555 146.391 24.4046 146.231 24.8877C146.072 25.3708 145.842 25.7786 145.541 26.1113C145.24 26.444 144.876 26.6992 144.447 26.877C144.023 27.0501 143.543 27.1367 143.005 27.1367C142.504 27.1367 142.043 27.0501 141.624 26.877C141.209 26.6992 140.849 26.444 140.544 26.1113C140.243 25.7786 140.008 25.3708 139.84 24.8877C139.676 24.4046 139.594 23.8555 139.594 23.2402C139.594 22.4199 139.733 21.7227 140.011 21.1484C140.289 20.5697 140.685 20.1299 141.2 19.8291C141.72 19.5238 142.337 19.3711 143.053 19.3711C143.736 19.3711 144.333 19.5238 144.844 19.8291C145.359 20.1344 145.757 20.5765 146.04 21.1553C146.327 21.7295 146.471 22.4245 146.471 23.2402ZM140.77 23.2402C140.77 23.8418 140.849 24.3636 141.009 24.8057C141.168 25.2477 141.414 25.5895 141.747 25.8311C142.08 26.0726 142.508 26.1934 143.032 26.1934C143.552 26.1934 143.978 26.0726 144.311 25.8311C144.648 25.5895 144.896 25.2477 145.056 24.8057C145.215 24.3636 145.295 23.8418 145.295 23.2402C145.295 22.6432 145.215 22.1283 145.056 21.6953C144.896 21.2578 144.65 20.9206 144.317 20.6836C143.985 20.4466 143.554 20.3281 143.025 20.3281C142.246 20.3281 141.674 20.5856 141.31 21.1006C140.95 21.6156 140.77 22.3288 140.77 23.2402ZM150.524 30.3633C149.54 30.3633 148.781 30.1787 148.248 29.8096C147.715 29.445 147.448 28.9323 147.448 28.2715C147.448 27.8021 147.596 27.401 147.893 27.0684C148.193 26.7357 148.608 26.5146 149.137 26.4053C148.941 26.3141 148.772 26.1774 148.631 25.9951C148.494 25.8128 148.426 25.6032 148.426 25.3662C148.426 25.0928 148.501 24.8535 148.651 24.6484C148.806 24.4388 149.041 24.2383 149.355 24.0469C148.964 23.8874 148.645 23.6185 148.398 23.2402C148.157 22.8574 148.036 22.4131 148.036 21.9072C148.036 21.3695 148.148 20.9115 148.371 20.5332C148.594 20.1504 148.918 19.8587 149.342 19.6582C149.766 19.4577 150.278 19.3574 150.88 19.3574C151.012 19.3574 151.144 19.3643 151.276 19.3779C151.413 19.387 151.543 19.403 151.666 19.4258C151.789 19.444 151.896 19.4668 151.987 19.4941H154.558V20.2256L153.177 20.3965C153.313 20.5742 153.427 20.7884 153.519 21.0391C153.61 21.2897 153.655 21.5677 153.655 21.873C153.655 22.6204 153.402 23.2152 152.896 23.6572C152.391 24.0947 151.696 24.3135 150.812 24.3135C150.602 24.3135 150.388 24.2952 150.169 24.2588C149.946 24.3818 149.775 24.5186 149.656 24.6689C149.542 24.8193 149.485 24.9925 149.485 25.1885C149.485 25.3343 149.529 25.4505 149.615 25.5371C149.706 25.6237 149.836 25.6875 150.005 25.7285C150.174 25.765 150.376 25.7832 150.613 25.7832H151.933C152.748 25.7832 153.373 25.9541 153.806 26.2959C154.243 26.6377 154.462 27.1367 154.462 27.793C154.462 28.6224 154.125 29.2581 153.45 29.7002C152.776 30.1423 151.8 30.3633 150.524 30.3633ZM150.559 29.4746C151.178 29.4746 151.691 29.4108 152.097 29.2832C152.507 29.1602 152.812 28.9801 153.013 28.7432C153.218 28.5107 153.32 28.2327 153.32 27.9092C153.32 27.6084 153.252 27.3805 153.115 27.2256C152.979 27.0752 152.778 26.9749 152.514 26.9248C152.249 26.8701 151.926 26.8428 151.543 26.8428H150.244C149.907 26.8428 149.613 26.8952 149.362 27C149.112 27.1048 148.918 27.2598 148.781 27.4648C148.649 27.6699 148.583 27.9251 148.583 28.2305C148.583 28.6361 148.754 28.9437 149.096 29.1533C149.438 29.3675 149.925 29.4746 150.559 29.4746ZM150.853 23.4863C151.395 23.4863 151.803 23.3496 152.076 23.0762C152.35 22.8027 152.486 22.404 152.486 21.8799C152.486 21.3193 152.347 20.9001 152.069 20.6221C151.791 20.3395 151.381 20.1982 150.839 20.1982C150.319 20.1982 149.918 20.3441 149.636 20.6357C149.358 20.9229 149.219 21.3444 149.219 21.9004C149.219 22.4108 149.36 22.8027 149.643 23.0762C149.925 23.3496 150.328 23.4863 150.853 23.4863ZM160.806 19.5078V27H159.671V19.5078H160.806ZM160.252 16.7051C160.439 16.7051 160.598 16.7666 160.73 16.8896C160.867 17.0081 160.936 17.195 160.936 17.4502C160.936 17.7008 160.867 17.8877 160.73 18.0107C160.598 18.1338 160.439 18.1953 160.252 18.1953C160.056 18.1953 159.892 18.1338 159.76 18.0107C159.632 17.8877 159.568 17.7008 159.568 17.4502C159.568 17.195 159.632 17.0081 159.76 16.8896C159.892 16.7666 160.056 16.7051 160.252 16.7051ZM166.76 19.3711C167.648 19.3711 168.321 19.5898 168.776 20.0273C169.232 20.4603 169.46 21.1576 169.46 22.1191V27H168.339V22.1943C168.339 21.57 168.195 21.1029 167.908 20.793C167.626 20.4831 167.19 20.3281 166.603 20.3281C165.773 20.3281 165.19 20.5628 164.853 21.0322C164.515 21.5016 164.347 22.1829 164.347 23.0762V27H163.212V19.5078H164.128L164.299 20.5879H164.36C164.52 20.3236 164.723 20.1025 164.969 19.9248C165.215 19.7425 165.491 19.6058 165.796 19.5146C166.101 19.4189 166.423 19.3711 166.76 19.3711ZM181.532 26.9863L180.199 22.625C180.14 22.4382 180.083 22.2559 180.028 22.0781C179.978 21.8958 179.93 21.7227 179.885 21.5586C179.844 21.39 179.805 21.235 179.769 21.0938C179.737 20.9479 179.709 20.8226 179.687 20.7178H179.639C179.62 20.8226 179.595 20.9479 179.563 21.0938C179.532 21.235 179.493 21.39 179.447 21.5586C179.406 21.7272 179.361 21.9049 179.311 22.0918C179.26 22.2741 179.203 22.4587 179.14 22.6455L177.745 26.9863H176.467L174.402 19.4941H175.578L176.658 23.6299C176.731 23.9033 176.799 24.1745 176.863 24.4434C176.932 24.7077 176.989 24.9583 177.034 25.1953C177.084 25.4277 177.121 25.6305 177.144 25.8037H177.198C177.226 25.6898 177.255 25.5531 177.287 25.3936C177.324 25.234 177.362 25.0654 177.403 24.8877C177.449 24.7054 177.497 24.5254 177.547 24.3477C177.597 24.1654 177.647 23.9945 177.697 23.835L179.078 19.4941H180.302L181.635 23.8281C181.703 24.0469 181.769 24.2747 181.833 24.5117C181.901 24.7487 181.963 24.9788 182.018 25.2021C182.072 25.4209 182.111 25.6169 182.134 25.79H182.188C182.207 25.6351 182.241 25.4437 182.291 25.2158C182.341 24.988 182.398 24.7373 182.462 24.4639C182.53 24.1904 182.601 23.9124 182.674 23.6299L183.768 19.4941H184.923L182.852 26.9863H181.532ZM187.425 19.5078V27H186.29V19.5078H187.425ZM186.871 16.7051C187.058 16.7051 187.217 16.7666 187.35 16.8896C187.486 17.0081 187.555 17.195 187.555 17.4502C187.555 17.7008 187.486 17.8877 187.35 18.0107C187.217 18.1338 187.058 18.1953 186.871 18.1953C186.675 18.1953 186.511 18.1338 186.379 18.0107C186.251 17.8877 186.188 17.7008 186.188 17.4502C186.188 17.195 186.251 17.0081 186.379 16.8896C186.511 16.7666 186.675 16.7051 186.871 16.7051ZM192.251 26.207C192.438 26.207 192.629 26.1911 192.825 26.1592C193.021 26.1273 193.181 26.0885 193.304 26.043V26.9248C193.172 26.984 192.987 27.0342 192.75 27.0752C192.518 27.1162 192.29 27.1367 192.066 27.1367C191.67 27.1367 191.31 27.0684 190.986 26.9316C190.663 26.7904 190.403 26.5534 190.207 26.2207C190.016 25.888 189.92 25.4277 189.92 24.8398V20.3965H188.854V19.8428L189.927 19.3984L190.378 17.7715H191.062V19.5078H193.256V20.3965H191.062V24.8057C191.062 25.2751 191.169 25.626 191.383 25.8584C191.602 26.0908 191.891 26.207 192.251 26.207ZM195.956 16.3633V19.542C195.956 19.7243 195.951 19.9089 195.942 20.0957C195.933 20.278 195.917 20.4466 195.895 20.6016H195.97C196.125 20.3372 196.321 20.1162 196.558 19.9385C196.799 19.7562 197.073 19.6195 197.378 19.5283C197.683 19.4326 198.007 19.3848 198.349 19.3848C198.95 19.3848 199.451 19.4805 199.853 19.6719C200.258 19.8633 200.561 20.1595 200.762 20.5605C200.967 20.9616 201.069 21.4811 201.069 22.1191V27H199.948V22.1943C199.948 21.57 199.805 21.1029 199.518 20.793C199.235 20.4831 198.8 20.3281 198.212 20.3281C197.656 20.3281 197.212 20.4352 196.879 20.6494C196.551 20.859 196.314 21.1689 196.168 21.5791C196.027 21.9893 195.956 22.4906 195.956 23.083V27H194.821V16.3633H195.956ZM211.487 21.7637H214.98V26.6104C214.456 26.7881 213.916 26.9202 213.36 27.0068C212.809 27.0934 212.191 27.1367 211.508 27.1367C210.469 27.1367 209.591 26.9294 208.876 26.5146C208.165 26.0999 207.625 25.5098 207.256 24.7441C206.887 23.974 206.702 23.0602 206.702 22.0029C206.702 20.9684 206.905 20.0661 207.311 19.2959C207.721 18.5257 208.311 17.9287 209.081 17.5049C209.856 17.0765 210.785 16.8623 211.87 16.8623C212.426 16.8623 212.952 16.9147 213.449 17.0195C213.951 17.1198 214.415 17.2633 214.844 17.4502L214.399 18.4619C214.03 18.3024 213.622 18.1657 213.176 18.0518C212.734 17.9378 212.276 17.8809 211.802 17.8809C210.986 17.8809 210.286 18.0495 209.703 18.3867C209.124 18.724 208.68 19.2002 208.37 19.8154C208.065 20.4307 207.912 21.1598 207.912 22.0029C207.912 22.8369 208.047 23.5638 208.315 24.1836C208.584 24.7988 209.004 25.2773 209.573 25.6191C210.143 25.9609 210.877 26.1318 211.774 26.1318C212.226 26.1318 212.613 26.1068 212.937 26.0566C213.26 26.002 213.554 25.9382 213.818 25.8652V22.8027H211.487V21.7637ZM223.689 23.2402C223.689 23.8555 223.61 24.4046 223.45 24.8877C223.291 25.3708 223.061 25.7786 222.76 26.1113C222.459 26.444 222.094 26.6992 221.666 26.877C221.242 27.0501 220.761 27.1367 220.224 27.1367C219.722 27.1367 219.262 27.0501 218.843 26.877C218.428 26.6992 218.068 26.444 217.763 26.1113C217.462 25.7786 217.227 25.3708 217.059 24.8877C216.895 24.4046 216.812 23.8555 216.812 23.2402C216.812 22.4199 216.951 21.7227 217.229 21.1484C217.507 20.5697 217.904 20.1299 218.419 19.8291C218.938 19.5238 219.556 19.3711 220.271 19.3711C220.955 19.3711 221.552 19.5238 222.062 19.8291C222.577 20.1344 222.976 20.5765 223.259 21.1553C223.546 21.7295 223.689 22.4245 223.689 23.2402ZM217.988 23.2402C217.988 23.8418 218.068 24.3636 218.228 24.8057C218.387 25.2477 218.633 25.5895 218.966 25.8311C219.299 26.0726 219.727 26.1934 220.251 26.1934C220.771 26.1934 221.197 26.0726 221.529 25.8311C221.867 25.5895 222.115 25.2477 222.274 24.8057C222.434 24.3636 222.514 23.8418 222.514 23.2402C222.514 22.6432 222.434 22.1283 222.274 21.6953C222.115 21.2578 221.869 20.9206 221.536 20.6836C221.203 20.4466 220.773 20.3281 220.244 20.3281C219.465 20.3281 218.893 20.5856 218.528 21.1006C218.168 21.6156 217.988 22.3288 217.988 23.2402ZM232.111 23.2402C232.111 23.8555 232.032 24.4046 231.872 24.8877C231.713 25.3708 231.482 25.7786 231.182 26.1113C230.881 26.444 230.516 26.6992 230.088 26.877C229.664 27.0501 229.183 27.1367 228.646 27.1367C228.144 27.1367 227.684 27.0501 227.265 26.877C226.85 26.6992 226.49 26.444 226.185 26.1113C225.884 25.7786 225.649 25.3708 225.48 24.8877C225.316 24.4046 225.234 23.8555 225.234 23.2402C225.234 22.4199 225.373 21.7227 225.651 21.1484C225.929 20.5697 226.326 20.1299 226.841 19.8291C227.36 19.5238 227.978 19.3711 228.693 19.3711C229.377 19.3711 229.974 19.5238 230.484 19.8291C230.999 20.1344 231.398 20.5765 231.681 21.1553C231.968 21.7295 232.111 22.4245 232.111 23.2402ZM226.41 23.2402C226.41 23.8418 226.49 24.3636 226.649 24.8057C226.809 25.2477 227.055 25.5895 227.388 25.8311C227.72 26.0726 228.149 26.1934 228.673 26.1934C229.192 26.1934 229.618 26.0726 229.951 25.8311C230.288 25.5895 230.537 25.2477 230.696 24.8057C230.856 24.3636 230.936 23.8418 230.936 23.2402C230.936 22.6432 230.856 22.1283 230.696 21.6953C230.537 21.2578 230.291 20.9206 229.958 20.6836C229.625 20.4466 229.195 20.3281 228.666 20.3281C227.887 20.3281 227.315 20.5856 226.95 21.1006C226.59 21.6156 226.41 22.3288 226.41 23.2402ZM236.165 30.3633C235.181 30.3633 234.422 30.1787 233.889 29.8096C233.355 29.445 233.089 28.9323 233.089 28.2715C233.089 27.8021 233.237 27.401 233.533 27.0684C233.834 26.7357 234.249 26.5146 234.777 26.4053C234.581 26.3141 234.413 26.1774 234.271 25.9951C234.135 25.8128 234.066 25.6032 234.066 25.3662C234.066 25.0928 234.142 24.8535 234.292 24.6484C234.447 24.4388 234.682 24.2383 234.996 24.0469C234.604 23.8874 234.285 23.6185 234.039 23.2402C233.798 22.8574 233.677 22.4131 233.677 21.9072C233.677 21.3695 233.788 20.9115 234.012 20.5332C234.235 20.1504 234.559 19.8587 234.982 19.6582C235.406 19.4577 235.919 19.3574 236.521 19.3574C236.653 19.3574 236.785 19.3643 236.917 19.3779C237.054 19.387 237.184 19.403 237.307 19.4258C237.43 19.444 237.537 19.4668 237.628 19.4941H240.198V20.2256L238.817 20.3965C238.954 20.5742 239.068 20.7884 239.159 21.0391C239.25 21.2897 239.296 21.5677 239.296 21.873C239.296 22.6204 239.043 23.2152 238.537 23.6572C238.031 24.0947 237.336 24.3135 236.452 24.3135C236.243 24.3135 236.028 24.2952 235.81 24.2588C235.586 24.3818 235.415 24.5186 235.297 24.6689C235.183 24.8193 235.126 24.9925 235.126 25.1885C235.126 25.3343 235.169 25.4505 235.256 25.5371C235.347 25.6237 235.477 25.6875 235.646 25.7285C235.814 25.765 236.017 25.7832 236.254 25.7832H237.573C238.389 25.7832 239.013 25.9541 239.446 26.2959C239.884 26.6377 240.103 27.1367 240.103 27.793C240.103 28.6224 239.765 29.2581 239.091 29.7002C238.416 30.1423 237.441 30.3633 236.165 30.3633ZM236.199 29.4746C236.819 29.4746 237.332 29.4108 237.737 29.2832C238.147 29.1602 238.453 28.9801 238.653 28.7432C238.858 28.5107 238.961 28.2327 238.961 27.9092C238.961 27.6084 238.893 27.3805 238.756 27.2256C238.619 27.0752 238.419 26.9749 238.154 26.9248C237.89 26.8701 237.566 26.8428 237.184 26.8428H235.885C235.548 26.8428 235.254 26.8952 235.003 27C234.752 27.1048 234.559 27.2598 234.422 27.4648C234.29 27.6699 234.224 27.9251 234.224 28.2305C234.224 28.6361 234.395 28.9437 234.736 29.1533C235.078 29.3675 235.566 29.4746 236.199 29.4746ZM236.493 23.4863C237.035 23.4863 237.443 23.3496 237.717 23.0762C237.99 22.8027 238.127 22.404 238.127 21.8799C238.127 21.3193 237.988 20.9001 237.71 20.6221C237.432 20.3395 237.022 20.1982 236.479 20.1982C235.96 20.1982 235.559 20.3441 235.276 20.6357C234.998 20.9229 234.859 21.3444 234.859 21.9004C234.859 22.4108 235.001 22.8027 235.283 23.0762C235.566 23.3496 235.969 23.4863 236.493 23.4863ZM242.816 27H241.675V16.3633H242.816V27ZM248.101 19.3711C248.739 19.3711 249.285 19.5124 249.741 19.7949C250.197 20.0775 250.546 20.474 250.787 20.9844C251.029 21.4902 251.149 22.0827 251.149 22.7617V23.4658H245.975C245.988 24.3454 246.207 25.0153 246.631 25.4756C247.055 25.9359 247.652 26.166 248.422 26.166C248.896 26.166 249.315 26.1227 249.68 26.0361C250.044 25.9495 250.423 25.8219 250.814 25.6533V26.6514C250.436 26.82 250.06 26.943 249.687 27.0205C249.317 27.098 248.88 27.1367 248.374 27.1367C247.654 27.1367 247.025 26.9909 246.487 26.6992C245.954 26.403 245.539 25.9701 245.243 25.4004C244.947 24.8307 244.799 24.1335 244.799 23.3086C244.799 22.502 244.933 21.8047 245.202 21.2168C245.476 20.6243 245.858 20.1686 246.351 19.8496C246.847 19.5306 247.431 19.3711 248.101 19.3711ZM248.087 20.3008C247.481 20.3008 246.998 20.499 246.638 20.8955C246.278 21.292 246.063 21.8457 245.995 22.5566H249.96C249.955 22.11 249.885 21.7181 249.748 21.3809C249.616 21.0391 249.413 20.7747 249.14 20.5879C248.866 20.3965 248.515 20.3008 248.087 20.3008Z" fill="#454545"/>
</svg>
