<svg width="346" height="44" viewBox="0 0 346 44" fill="none" xmlns="http://www.w3.org/2000/svg">
<rect x="0.5" y="0.5" width="345" height="43" stroke="#B6AFAF"/>
<g opacity="0.66">
<path d="M108.396 32.0001C109.006 32.0001 109.5 31.5059 109.5 30.8962V13.1038C109.5 12.4941 109.006 12 108.396 12H90.6038C89.9941 12 89.5 12.4941 89.5 13.1038V30.8962C89.5 31.5059 89.9941 32.0001 90.6038 32.0001H108.396Z" fill="#0666FB"/>
<path d="M103.3 32V24.2549H105.899L106.289 21.2366H103.3V19.3094C103.3 18.4355 103.542 17.8399 104.795 17.8399L106.394 17.8392V15.1396C106.117 15.1028 105.169 15.0206 104.065 15.0206C101.76 15.0206 100.183 16.4273 100.183 19.0106V21.2366H97.5762V24.2549H100.183V32H103.3Z" fill="#EDEBEA"/>
</g>
<path d="M124.867 27V17.0059H126.029V25.9609H130.466V27H124.867ZM138.471 23.2402C138.471 23.8555 138.391 24.4046 138.231 24.8877C138.072 25.3708 137.842 25.7786 137.541 26.1113C137.24 26.444 136.876 26.6992 136.447 26.877C136.023 27.0501 135.543 27.1367 135.005 27.1367C134.504 27.1367 134.043 27.0501 133.624 26.877C133.209 26.6992 132.849 26.444 132.544 26.1113C132.243 25.7786 132.008 25.3708 131.84 24.8877C131.676 24.4046 131.594 23.8555 131.594 23.2402C131.594 22.4199 131.733 21.7227 132.011 21.1484C132.289 20.5697 132.685 20.1299 133.2 19.8291C133.72 19.5238 134.337 19.3711 135.053 19.3711C135.736 19.3711 136.333 19.5238 136.844 19.8291C137.359 20.1344 137.757 20.5765 138.04 21.1553C138.327 21.7295 138.471 22.4245 138.471 23.2402ZM132.77 23.2402C132.77 23.8418 132.849 24.3636 133.009 24.8057C133.168 25.2477 133.414 25.5895 133.747 25.8311C134.08 26.0726 134.508 26.1934 135.032 26.1934C135.552 26.1934 135.978 26.0726 136.311 25.8311C136.648 25.5895 136.896 25.2477 137.056 24.8057C137.215 24.3636 137.295 23.8418 137.295 23.2402C137.295 22.6432 137.215 22.1283 137.056 21.6953C136.896 21.2578 136.65 20.9206 136.317 20.6836C135.985 20.4466 135.554 20.3281 135.025 20.3281C134.246 20.3281 133.674 20.5856 133.31 21.1006C132.95 21.6156 132.77 22.3288 132.77 23.2402ZM142.524 30.3633C141.54 30.3633 140.781 30.1787 140.248 29.8096C139.715 29.445 139.448 28.9323 139.448 28.2715C139.448 27.8021 139.596 27.401 139.893 27.0684C140.193 26.7357 140.608 26.5146 141.137 26.4053C140.941 26.3141 140.772 26.1774 140.631 25.9951C140.494 25.8128 140.426 25.6032 140.426 25.3662C140.426 25.0928 140.501 24.8535 140.651 24.6484C140.806 24.4388 141.041 24.2383 141.355 24.0469C140.964 23.8874 140.645 23.6185 140.398 23.2402C140.157 22.8574 140.036 22.4131 140.036 21.9072C140.036 21.3695 140.148 20.9115 140.371 20.5332C140.594 20.1504 140.918 19.8587 141.342 19.6582C141.766 19.4577 142.278 19.3574 142.88 19.3574C143.012 19.3574 143.144 19.3643 143.276 19.3779C143.413 19.387 143.543 19.403 143.666 19.4258C143.789 19.444 143.896 19.4668 143.987 19.4941H146.558V20.2256L145.177 20.3965C145.313 20.5742 145.427 20.7884 145.519 21.0391C145.61 21.2897 145.655 21.5677 145.655 21.873C145.655 22.6204 145.402 23.2152 144.896 23.6572C144.391 24.0947 143.696 24.3135 142.812 24.3135C142.602 24.3135 142.388 24.2952 142.169 24.2588C141.946 24.3818 141.775 24.5186 141.656 24.6689C141.542 24.8193 141.485 24.9925 141.485 25.1885C141.485 25.3343 141.529 25.4505 141.615 25.5371C141.706 25.6237 141.836 25.6875 142.005 25.7285C142.174 25.765 142.376 25.7832 142.613 25.7832H143.933C144.748 25.7832 145.373 25.9541 145.806 26.2959C146.243 26.6377 146.462 27.1367 146.462 27.793C146.462 28.6224 146.125 29.2581 145.45 29.7002C144.776 30.1423 143.8 30.3633 142.524 30.3633ZM142.559 29.4746C143.178 29.4746 143.691 29.4108 144.097 29.2832C144.507 29.1602 144.812 28.9801 145.013 28.7432C145.218 28.5107 145.32 28.2327 145.32 27.9092C145.32 27.6084 145.252 27.3805 145.115 27.2256C144.979 27.0752 144.778 26.9749 144.514 26.9248C144.249 26.8701 143.926 26.8428 143.543 26.8428H142.244C141.907 26.8428 141.613 26.8952 141.362 27C141.112 27.1048 140.918 27.2598 140.781 27.4648C140.649 27.6699 140.583 27.9251 140.583 28.2305C140.583 28.6361 140.754 28.9437 141.096 29.1533C141.438 29.3675 141.925 29.4746 142.559 29.4746ZM142.853 23.4863C143.395 23.4863 143.803 23.3496 144.076 23.0762C144.35 22.8027 144.486 22.404 144.486 21.8799C144.486 21.3193 144.347 20.9001 144.069 20.6221C143.791 20.3395 143.381 20.1982 142.839 20.1982C142.319 20.1982 141.918 20.3441 141.636 20.6357C141.358 20.9229 141.219 21.3444 141.219 21.9004C141.219 22.4108 141.36 22.8027 141.643 23.0762C141.925 23.3496 142.328 23.4863 142.853 23.4863ZM152.806 19.5078V27H151.671V19.5078H152.806ZM152.252 16.7051C152.439 16.7051 152.598 16.7666 152.73 16.8896C152.867 17.0081 152.936 17.195 152.936 17.4502C152.936 17.7008 152.867 17.8877 152.73 18.0107C152.598 18.1338 152.439 18.1953 152.252 18.1953C152.056 18.1953 151.892 18.1338 151.76 18.0107C151.632 17.8877 151.568 17.7008 151.568 17.4502C151.568 17.195 151.632 17.0081 151.76 16.8896C151.892 16.7666 152.056 16.7051 152.252 16.7051ZM158.76 19.3711C159.648 19.3711 160.321 19.5898 160.776 20.0273C161.232 20.4603 161.46 21.1576 161.46 22.1191V27H160.339V22.1943C160.339 21.57 160.195 21.1029 159.908 20.793C159.626 20.4831 159.19 20.3281 158.603 20.3281C157.773 20.3281 157.19 20.5628 156.853 21.0322C156.515 21.5016 156.347 22.1829 156.347 23.0762V27H155.212V19.5078H156.128L156.299 20.5879H156.36C156.52 20.3236 156.723 20.1025 156.969 19.9248C157.215 19.7425 157.491 19.6058 157.796 19.5146C158.101 19.4189 158.423 19.3711 158.76 19.3711ZM173.532 26.9863L172.199 22.625C172.14 22.4382 172.083 22.2559 172.028 22.0781C171.978 21.8958 171.93 21.7227 171.885 21.5586C171.844 21.39 171.805 21.235 171.769 21.0938C171.737 20.9479 171.709 20.8226 171.687 20.7178H171.639C171.62 20.8226 171.595 20.9479 171.563 21.0938C171.532 21.235 171.493 21.39 171.447 21.5586C171.406 21.7272 171.361 21.9049 171.311 22.0918C171.26 22.2741 171.203 22.4587 171.14 22.6455L169.745 26.9863H168.467L166.402 19.4941H167.578L168.658 23.6299C168.731 23.9033 168.799 24.1745 168.863 24.4434C168.932 24.7077 168.989 24.9583 169.034 25.1953C169.084 25.4277 169.121 25.6305 169.144 25.8037H169.198C169.226 25.6898 169.255 25.5531 169.287 25.3936C169.324 25.234 169.362 25.0654 169.403 24.8877C169.449 24.7054 169.497 24.5254 169.547 24.3477C169.597 24.1654 169.647 23.9945 169.697 23.835L171.078 19.4941H172.302L173.635 23.8281C173.703 24.0469 173.769 24.2747 173.833 24.5117C173.901 24.7487 173.963 24.9788 174.018 25.2021C174.072 25.4209 174.111 25.6169 174.134 25.79H174.188C174.207 25.6351 174.241 25.4437 174.291 25.2158C174.341 24.988 174.398 24.7373 174.462 24.4639C174.53 24.1904 174.601 23.9124 174.674 23.6299L175.768 19.4941H176.923L174.852 26.9863H173.532ZM179.425 19.5078V27H178.29V19.5078H179.425ZM178.871 16.7051C179.058 16.7051 179.217 16.7666 179.35 16.8896C179.486 17.0081 179.555 17.195 179.555 17.4502C179.555 17.7008 179.486 17.8877 179.35 18.0107C179.217 18.1338 179.058 18.1953 178.871 18.1953C178.675 18.1953 178.511 18.1338 178.379 18.0107C178.251 17.8877 178.188 17.7008 178.188 17.4502C178.188 17.195 178.251 17.0081 178.379 16.8896C178.511 16.7666 178.675 16.7051 178.871 16.7051ZM184.251 26.207C184.438 26.207 184.629 26.1911 184.825 26.1592C185.021 26.1273 185.181 26.0885 185.304 26.043V26.9248C185.172 26.984 184.987 27.0342 184.75 27.0752C184.518 27.1162 184.29 27.1367 184.066 27.1367C183.67 27.1367 183.31 27.0684 182.986 26.9316C182.663 26.7904 182.403 26.5534 182.207 26.2207C182.016 25.888 181.92 25.4277 181.92 24.8398V20.3965H180.854V19.8428L181.927 19.3984L182.378 17.7715H183.062V19.5078H185.256V20.3965H183.062V24.8057C183.062 25.2751 183.169 25.626 183.383 25.8584C183.602 26.0908 183.891 26.207 184.251 26.207ZM187.956 16.3633V19.542C187.956 19.7243 187.951 19.9089 187.942 20.0957C187.933 20.278 187.917 20.4466 187.895 20.6016H187.97C188.125 20.3372 188.321 20.1162 188.558 19.9385C188.799 19.7562 189.073 19.6195 189.378 19.5283C189.683 19.4326 190.007 19.3848 190.349 19.3848C190.95 19.3848 191.451 19.4805 191.853 19.6719C192.258 19.8633 192.561 20.1595 192.762 20.5605C192.967 20.9616 193.069 21.4811 193.069 22.1191V27H191.948V22.1943C191.948 21.57 191.805 21.1029 191.518 20.793C191.235 20.4831 190.8 20.3281 190.212 20.3281C189.656 20.3281 189.212 20.4352 188.879 20.6494C188.551 20.859 188.314 21.1689 188.168 21.5791C188.027 21.9893 187.956 22.4906 187.956 23.083V27H186.821V16.3633H187.956ZM200.377 27H199.215V17.0059H204.779V18.0312H200.377V21.6953H204.513V22.7139H200.377V27ZM209.079 19.3848C209.972 19.3848 210.635 19.5853 211.068 19.9863C211.501 20.3874 211.718 21.0277 211.718 21.9072V27H210.891L210.672 25.8926H210.617C210.408 26.166 210.189 26.3962 209.961 26.583C209.733 26.7653 209.469 26.9043 209.168 27C208.872 27.0911 208.507 27.1367 208.074 27.1367C207.618 27.1367 207.213 27.057 206.857 26.8975C206.507 26.738 206.229 26.4964 206.023 26.1729C205.823 25.8493 205.723 25.4391 205.723 24.9424C205.723 24.195 206.019 23.6208 206.611 23.2197C207.204 22.8187 208.106 22.5999 209.318 22.5635L210.61 22.5088V22.0508C210.61 21.4036 210.471 20.9502 210.193 20.6904C209.915 20.4307 209.523 20.3008 209.018 20.3008C208.626 20.3008 208.252 20.3577 207.896 20.4717C207.541 20.5856 207.204 20.7201 206.885 20.875L206.536 20.0137C206.873 19.8405 207.261 19.6924 207.698 19.5693C208.136 19.4463 208.596 19.3848 209.079 19.3848ZM210.597 23.3086L209.455 23.3564C208.521 23.3929 207.862 23.5456 207.479 23.8145C207.097 24.0833 206.905 24.4639 206.905 24.9561C206.905 25.3844 207.035 25.7012 207.295 25.9062C207.555 26.1113 207.899 26.2139 208.327 26.2139C208.993 26.2139 209.537 26.0293 209.961 25.6602C210.385 25.291 210.597 24.7373 210.597 23.999V23.3086ZM217.057 27.1367C216.382 27.1367 215.787 26.9977 215.272 26.7197C214.757 26.4417 214.356 26.0179 214.069 25.4482C213.782 24.8786 213.639 24.1608 213.639 23.2949C213.639 22.388 213.789 21.6475 214.09 21.0732C214.395 20.4945 214.814 20.0661 215.348 19.7881C215.881 19.5101 216.487 19.3711 217.166 19.3711C217.54 19.3711 217.9 19.4098 218.246 19.4873C218.597 19.5602 218.884 19.6536 219.107 19.7676L218.766 20.7178C218.538 20.6266 218.273 20.5446 217.973 20.4717C217.676 20.3988 217.398 20.3623 217.139 20.3623C216.619 20.3623 216.186 20.474 215.84 20.6973C215.498 20.9206 215.241 21.2487 215.067 21.6816C214.899 22.1146 214.814 22.6478 214.814 23.2812C214.814 23.8874 214.896 24.4046 215.061 24.833C215.229 25.2614 215.478 25.5895 215.806 25.8174C216.138 26.0407 216.553 26.1523 217.05 26.1523C217.446 26.1523 217.804 26.1113 218.123 26.0293C218.442 25.9427 218.731 25.8424 218.991 25.7285V26.7402C218.741 26.8678 218.46 26.9658 218.15 27.0342C217.845 27.1025 217.48 27.1367 217.057 27.1367ZM223.653 19.3711C224.291 19.3711 224.838 19.5124 225.294 19.7949C225.75 20.0775 226.098 20.474 226.34 20.9844C226.581 21.4902 226.702 22.0827 226.702 22.7617V23.4658H221.527C221.541 24.3454 221.76 25.0153 222.184 25.4756C222.607 25.9359 223.204 26.166 223.975 26.166C224.449 26.166 224.868 26.1227 225.232 26.0361C225.597 25.9495 225.975 25.8219 226.367 25.6533V26.6514C225.989 26.82 225.613 26.943 225.239 27.0205C224.87 27.098 224.433 27.1367 223.927 27.1367C223.207 27.1367 222.578 26.9909 222.04 26.6992C221.507 26.403 221.092 25.9701 220.796 25.4004C220.5 24.8307 220.352 24.1335 220.352 23.3086C220.352 22.502 220.486 21.8047 220.755 21.2168C221.028 20.6243 221.411 20.1686 221.903 19.8496C222.4 19.5306 222.983 19.3711 223.653 19.3711ZM223.64 20.3008C223.034 20.3008 222.55 20.499 222.19 20.8955C221.83 21.292 221.616 21.8457 221.548 22.5566H225.513C225.508 22.11 225.438 21.7181 225.301 21.3809C225.169 21.0391 224.966 20.7747 224.692 20.5879C224.419 20.3965 224.068 20.3008 223.64 20.3008ZM229.765 16.3633V19.0225C229.765 19.3278 229.756 19.624 229.737 19.9111C229.724 20.1982 229.712 20.4215 229.703 20.5811H229.765C229.97 20.2438 230.266 19.959 230.653 19.7266C231.041 19.4941 231.535 19.3779 232.137 19.3779C233.076 19.3779 233.823 19.7038 234.379 20.3555C234.939 21.0026 235.22 21.9665 235.22 23.2471C235.22 24.0902 235.092 24.8011 234.837 25.3799C234.582 25.9587 234.222 26.3962 233.757 26.6924C233.292 26.9886 232.743 27.1367 232.109 27.1367C231.517 27.1367 231.029 27.0273 230.646 26.8086C230.268 26.5853 229.977 26.3141 229.771 25.9951H229.683L229.45 27H228.63V16.3633H229.765ZM231.952 20.3281C231.41 20.3281 230.979 20.4352 230.66 20.6494C230.341 20.859 230.111 21.1781 229.97 21.6064C229.833 22.0303 229.765 22.568 229.765 23.2197V23.2812C229.765 24.2246 229.922 24.9469 230.236 25.4482C230.551 25.945 231.123 26.1934 231.952 26.1934C232.649 26.1934 233.171 25.9382 233.518 25.4277C233.868 24.9173 234.044 24.1882 234.044 23.2402C234.044 22.2741 233.871 21.5472 233.524 21.0596C233.183 20.5719 232.659 20.3281 231.952 20.3281ZM243.662 23.2402C243.662 23.8555 243.582 24.4046 243.423 24.8877C243.263 25.3708 243.033 25.7786 242.732 26.1113C242.432 26.444 242.067 26.6992 241.639 26.877C241.215 27.0501 240.734 27.1367 240.196 27.1367C239.695 27.1367 239.235 27.0501 238.815 26.877C238.401 26.6992 238.041 26.444 237.735 26.1113C237.435 25.7786 237.2 25.3708 237.031 24.8877C236.867 24.4046 236.785 23.8555 236.785 23.2402C236.785 22.4199 236.924 21.7227 237.202 21.1484C237.48 20.5697 237.877 20.1299 238.392 19.8291C238.911 19.5238 239.529 19.3711 240.244 19.3711C240.928 19.3711 241.525 19.5238 242.035 19.8291C242.55 20.1344 242.949 20.5765 243.231 21.1553C243.519 21.7295 243.662 22.4245 243.662 23.2402ZM237.961 23.2402C237.961 23.8418 238.041 24.3636 238.2 24.8057C238.36 25.2477 238.606 25.5895 238.938 25.8311C239.271 26.0726 239.7 26.1934 240.224 26.1934C240.743 26.1934 241.169 26.0726 241.502 25.8311C241.839 25.5895 242.088 25.2477 242.247 24.8057C242.407 24.3636 242.486 23.8418 242.486 23.2402C242.486 22.6432 242.407 22.1283 242.247 21.6953C242.088 21.2578 241.841 20.9206 241.509 20.6836C241.176 20.4466 240.745 20.3281 240.217 20.3281C239.438 20.3281 238.866 20.5856 238.501 21.1006C238.141 21.6156 237.961 22.3288 237.961 23.2402ZM252.084 23.2402C252.084 23.8555 252.004 24.4046 251.845 24.8877C251.685 25.3708 251.455 25.7786 251.154 26.1113C250.854 26.444 250.489 26.6992 250.061 26.877C249.637 27.0501 249.156 27.1367 248.618 27.1367C248.117 27.1367 247.657 27.0501 247.237 26.877C246.823 26.6992 246.463 26.444 246.157 26.1113C245.856 25.7786 245.622 25.3708 245.453 24.8877C245.289 24.4046 245.207 23.8555 245.207 23.2402C245.207 22.4199 245.346 21.7227 245.624 21.1484C245.902 20.5697 246.299 20.1299 246.813 19.8291C247.333 19.5238 247.951 19.3711 248.666 19.3711C249.35 19.3711 249.947 19.5238 250.457 19.8291C250.972 20.1344 251.371 20.5765 251.653 21.1553C251.94 21.7295 252.084 22.4245 252.084 23.2402ZM246.383 23.2402C246.383 23.8418 246.463 24.3636 246.622 24.8057C246.782 25.2477 247.028 25.5895 247.36 25.8311C247.693 26.0726 248.121 26.1934 248.646 26.1934C249.165 26.1934 249.591 26.0726 249.924 25.8311C250.261 25.5895 250.509 25.2477 250.669 24.8057C250.828 24.3636 250.908 23.8418 250.908 23.2402C250.908 22.6432 250.828 22.1283 250.669 21.6953C250.509 21.2578 250.263 20.9206 249.931 20.6836C249.598 20.4466 249.167 20.3281 248.639 20.3281C247.859 20.3281 247.287 20.5856 246.923 21.1006C246.563 21.6156 246.383 22.3288 246.383 23.2402ZM255.174 16.3633V21.8867C255.174 22.069 255.167 22.2923 255.153 22.5566C255.14 22.8164 255.128 23.0465 255.119 23.2471H255.167C255.263 23.1286 255.402 22.9531 255.584 22.7207C255.771 22.4883 255.928 22.3014 256.056 22.1602L258.544 19.5078H259.877L256.862 22.707L260.096 27H258.729L256.083 23.4521L255.174 24.2861V27H254.046V16.3633H255.174Z" fill="#454545"/>
</svg>
