<svg width="36" height="36" viewBox="0 0 36 36" fill="none" xmlns="http://www.w3.org/2000/svg">
<path fill-rule="evenodd" clip-rule="evenodd" d="M15.0338 12.9535C15.0338 11.3223 16.3562 10 17.9874 10C19.6186 10 20.9409 11.3224 20.9409 12.9536V14.171H15.0338V12.9535ZM14.0338 15.171V17.9256H15.0338V15.171H20.9409V17.9256H21.9409V15.171H25.7196L23.0138 25.9968H12.524L10.2337 15.171H14.0338ZM14.0338 14.171V12.9535C14.0338 10.7701 15.8039 9 17.9874 9C20.1709 9 21.9409 10.7701 21.9409 12.9536V14.171H26.3599H27.0003L26.845 14.7923L23.8893 26.618L23.7946 26.9968H23.4042H12.1187H11.7134L11.6295 26.6003L9.12768 14.7745L9 14.171H9.61685H14.0338Z" fill="black"/>
</svg>
