<svg width="72" height="72" viewBox="0 0 72 72" fill="none" xmlns="http://www.w3.org/2000/svg">
<path d="M38.6429 15.4068C38.6429 16.1737 38.5521 16.9183 38.3811 17.6307C36.0892 15.4509 32.8671 14.1095 29.3214 14.1095C25.7757 14.1095 22.5537 15.4509 20.2618 17.6307C20.0907 16.9183 20 16.1737 20 15.4068C20 10.2038 24.1811 6 29.3214 6C34.4618 6 38.6429 10.2038 38.6429 15.4068ZM33.3571 27.5932C33.3571 26.8263 33.4479 26.0817 33.6189 25.3693C35.9108 27.5491 39.1329 28.8905 42.6786 28.8905C46.2243 28.8905 49.4463 27.5491 51.7382 25.3693C51.9093 26.0817 52 26.8263 52 27.5932C52 32.7962 47.8189 37 42.6786 37C37.5382 37 33.3571 32.7962 33.3571 27.5932ZM42.1024 24.2378C41.3245 24.2392 40.5689 24.1533 39.8457 23.9903C42.0419 21.7435 43.3955 18.595 43.3891 15.1259C43.3827 11.6568 42.0175 8.51324 39.8131 6.2743C40.5356 6.10874 41.2907 6.02022 42.0686 6.01884C47.4318 6.00933 51.7013 10.1265 51.7105 15.1113C51.7197 20.096 47.4656 24.2283 42.1024 24.2378ZM31.8834 36.4785C31.1603 36.6415 30.4047 36.7274 29.6268 36.726C24.2636 36.7165 20.0095 32.5842 20.0187 27.5995C20.0279 22.6147 24.2974 18.4975 29.6606 18.507C30.4385 18.5084 31.1936 18.5969 31.9161 18.7625C29.7117 21.0014 28.3465 24.145 28.3401 27.6141C28.3337 31.0832 29.6873 34.2317 31.8834 36.4785Z" fill="#9E9283" stroke="#9E9283" stroke-width="2"/>
<path d="M15.6132 50.393C15.7147 50.6318 15.9235 50.7511 16.2397 50.7511C16.5977 50.7511 16.884 50.5721 17.0988 50.214C17.248 49.9693 17.3226 49.6589 17.3226 49.2829C17.3226 48.7278 17.1764 48.322 16.884 48.0654C16.6633 47.8744 16.3829 47.7789 16.0428 47.7789C15.9652 47.7789 15.8847 47.7848 15.8012 47.7968L15.2016 47.8863V53.1415C15.2016 53.3026 15.2582 53.4369 15.3716 53.5443C15.485 53.6517 15.6192 53.7055 15.7743 53.7055H15.8907V53.795H13.17V53.7055H13.2864C13.4415 53.7055 13.5728 53.6517 13.6802 53.5443C13.7935 53.4369 13.8532 53.3026 13.8591 53.1415V48.3697C13.8532 48.2146 13.8054 48.0922 13.716 48.0027C13.6324 47.9132 13.5071 47.8684 13.3401 47.8684C13.2983 47.8684 13.2446 47.8714 13.179 47.8774L13.1611 47.7968C13.6682 47.755 14.1992 47.6864 14.7541 47.5909C15.3149 47.4894 15.6818 47.4267 15.8549 47.4029C16.0338 47.379 16.2128 47.3671 16.3918 47.3671C16.5768 47.3671 16.7975 47.3879 17.0541 47.4297C17.3106 47.4655 17.5731 47.5521 17.8416 47.6893C18.1101 47.8207 18.3279 48.0176 18.4949 48.2802C18.668 48.5667 18.7545 48.892 18.7545 49.256C18.7545 49.6141 18.6888 49.9305 18.5576 50.205C18.307 50.7302 17.8774 51.0645 17.2689 51.2077C17.1197 51.2435 16.9765 51.2614 16.8393 51.2614C16.708 51.2614 16.5827 51.2495 16.4634 51.2256C16.2188 51.1898 16.013 51.1062 15.8459 50.9749C15.6789 50.8436 15.5744 50.6616 15.5327 50.4288L15.6132 50.393Z" fill="#413A32"/>
<path d="M22.1709 49.7932C22.0635 49.5664 22.0098 49.3515 22.0098 49.1486C22.0098 48.9397 22.0367 48.7487 22.0904 48.5756C22.1441 48.3966 22.2335 48.2235 22.3588 48.0564C22.4841 47.8833 22.6601 47.7401 22.8869 47.6267C23.1971 47.4655 23.57 47.385 24.0055 47.385C24.5783 47.385 25.1212 47.5312 25.6343 47.8236C26.3085 48.2056 26.7769 48.7338 27.0394 49.4082C27.1885 49.7783 27.2631 50.1752 27.2631 50.5989C27.2631 51.5956 26.9022 52.3984 26.1802 53.0072C25.4643 53.6159 24.5276 53.9203 23.3701 53.9203C22.2186 53.9203 21.2789 53.6159 20.5511 53.0072C19.8291 52.3984 19.4682 51.5986 19.4682 50.6079C19.4682 49.8678 19.677 49.2262 20.0946 48.6831C20.5182 48.134 21.088 47.761 21.804 47.564L21.8577 47.6446C21.5534 47.9012 21.3237 48.2772 21.1686 48.7726C21.0134 49.268 20.9359 49.8021 20.9359 50.3751C20.9359 51.342 21.1596 52.1119 21.6071 52.6849C22.0546 53.2578 22.6393 53.5443 23.3612 53.5443C24.0891 53.5443 24.6738 53.2757 25.1153 52.7386C25.5627 52.1955 25.7865 51.4793 25.7865 50.59C25.7865 50.0528 25.7029 49.5694 25.5359 49.1397C25.3748 48.704 25.1391 48.3697 24.8289 48.137C24.5186 47.8982 24.1726 47.7789 23.7907 47.7789C23.3671 47.7789 23.0241 47.8893 22.7616 48.1101C22.3917 48.4264 22.2067 48.8293 22.2067 49.3187C22.2067 49.4739 22.2276 49.6321 22.2693 49.7932H22.1709Z" fill="#413A32"/>
<path d="M27.4359 49.6141C27.1436 49.3336 26.9974 49.0322 26.9974 48.7099C26.9974 48.4593 27.078 48.2414 27.2391 48.0564C27.5433 47.6983 27.9699 47.5192 28.5188 47.5192H32.734C32.9965 47.5133 33.2262 47.4924 33.4231 47.4566C33.62 47.4148 33.7453 47.382 33.799 47.3581V48.9158H33.7095V48.8084C33.7095 48.5398 33.6289 48.322 33.4678 48.1549C33.3068 47.9878 33.089 47.9012 32.8145 47.8953H31.6064V53.1504C31.6183 53.3653 31.7167 53.5264 31.9017 53.6338C31.9852 53.6816 32.0777 53.7055 32.1791 53.7055H32.2955V53.795H29.5749V53.7055H29.6912C29.8463 53.7055 29.9776 53.6517 30.085 53.5443C30.1983 53.4369 30.258 53.3086 30.264 53.1594V47.8953H28.5188C28.2742 47.8953 28.0594 47.94 27.8745 48.0295C27.4986 48.2086 27.3107 48.4891 27.3107 48.8711C27.3107 49.0979 27.3822 49.3306 27.5254 49.5694L27.4359 49.6141Z" fill="#413A32"/>
<path d="M34.1218 49.6141C33.8294 49.3336 33.6833 49.0322 33.6833 48.7099C33.6833 48.4593 33.7638 48.2414 33.9249 48.0564C34.2292 47.6983 34.6558 47.5192 35.2047 47.5192H39.4198C39.6823 47.5133 39.912 47.4924 40.1089 47.4566C40.3058 47.4148 40.4311 47.382 40.4848 47.3581V48.9158H40.3953V48.8084C40.3953 48.5398 40.3148 48.322 40.1537 48.1549C39.9926 47.9878 39.7748 47.9012 39.5004 47.8953H38.2922V53.1504C38.3041 53.3653 38.4026 53.5264 38.5875 53.6338C38.6711 53.6816 38.7635 53.7055 38.865 53.7055H38.9813V53.795H36.2607V53.7055H36.377C36.5322 53.7055 36.6634 53.6517 36.7708 53.5443C36.8842 53.4369 36.9438 53.3086 36.9498 53.1594V47.8953H35.2047C34.96 47.8953 34.7453 47.94 34.5603 48.0295C34.1844 48.2086 33.9965 48.4891 33.9965 48.8711C33.9965 49.0979 34.0681 49.3306 34.2113 49.5694L34.1218 49.6141Z" fill="#413A32"/>
<path d="M41.0866 53.7055C41.2417 53.7055 41.373 53.6517 41.4804 53.5443C41.5937 53.4309 41.6534 53.2966 41.6593 53.1415V48.1549C41.6414 47.946 41.543 47.7908 41.364 47.6893C41.2745 47.6416 41.182 47.6177 41.0866 47.6177H40.9702V47.5282H43.485C43.7475 47.5282 43.9772 47.5073 44.1741 47.4655C44.371 47.4238 44.4993 47.3909 44.559 47.3671V48.9338H44.4605V48.8263C44.4665 48.5577 44.3889 48.3429 44.2278 48.1817C44.0727 48.0146 43.8609 47.9251 43.5924 47.9132H43.0018V50.5184H44.4247C44.6455 50.5124 44.8274 50.4378 44.9706 50.2945C45.1138 50.1453 45.1854 49.9633 45.1854 49.7484V49.6679H45.266V51.7359H45.1854V51.6643C45.1854 51.4435 45.1138 51.2614 44.9706 51.1182C44.8274 50.9749 44.6484 50.9003 44.4337 50.8944H43.0018V53.41H44.7469C45.1824 53.41 45.5464 53.2847 45.8387 53.034C46.137 52.7833 46.3578 52.4282 46.501 51.9687H46.5905L46.1698 53.795H40.9702V53.7055H41.0866Z" fill="#413A32"/>
<path d="M56.2649 55.3169C55.7995 55.5497 55.3043 55.6661 54.7793 55.6661C54.3139 55.6661 53.8903 55.5944 53.5085 55.4512C52.6851 55.1468 51.9841 54.553 51.4054 53.6697C51.2562 53.4548 50.9788 53.043 50.5731 52.4342C50.1674 51.8254 49.9049 51.4375 49.7855 51.2704C49.5767 50.9421 49.4097 50.7631 49.2844 50.7332V50.6437C49.2903 50.6437 49.2963 50.6437 49.3023 50.6437C49.3142 50.6437 49.3261 50.6437 49.3381 50.6437C49.35 50.6437 49.3619 50.6437 49.3739 50.6437C49.3858 50.6437 49.4007 50.6437 49.4186 50.6437C49.4365 50.6437 49.4514 50.6437 49.4634 50.6437C49.7676 50.6437 50.0481 50.5751 50.3046 50.4378C50.6924 50.2229 50.8863 49.826 50.8863 49.2471C50.8863 48.8233 50.767 48.4981 50.5283 48.2713C50.2897 48.0385 50.0033 47.9221 49.6692 47.9221H48.989V53.1415C48.989 53.2966 49.0457 53.4309 49.1591 53.5443C49.2724 53.6517 49.4067 53.7055 49.5618 53.7055H49.6781V53.795H46.9575V53.7055H47.0739C47.223 53.7055 47.3543 53.6517 47.4676 53.5443C47.581 53.4369 47.6407 53.3056 47.6466 53.1504V48.1817C47.6407 48.0266 47.581 47.8953 47.4676 47.7878C47.3603 47.6744 47.229 47.6177 47.0739 47.6177H46.9575V47.5282H50.0272C50.7968 47.5282 51.3935 47.7043 51.8171 48.0564C52.1512 48.3309 52.3182 48.7189 52.3182 49.2202C52.3182 49.7216 52.1542 50.1304 51.826 50.4467C51.5038 50.7571 51.1339 50.9123 50.7163 50.9123C50.6805 50.9123 50.6417 50.9093 50.5999 50.9033C50.8446 51.0346 51.0474 51.1808 51.2085 51.342C51.3756 51.5031 51.5187 51.6553 51.6381 51.7986C51.7634 51.9418 51.8678 52.0701 51.9513 52.1835C52.0408 52.291 52.1571 52.4372 52.3003 52.6222C52.4435 52.8013 52.5927 52.9893 52.7478 53.1862C52.9029 53.3832 53.073 53.5861 53.2579 53.795C53.4488 53.9979 53.6576 54.1919 53.8844 54.3769C54.1171 54.5619 54.3527 54.7141 54.5914 54.8335C55.0985 55.0901 55.6563 55.2214 56.2649 55.2274V55.3169Z" fill="#413A32"/>
<path d="M52.0642 47.009C52.1597 47.003 52.3118 47 52.5206 47C52.7235 47 52.992 47.0448 53.3261 47.1343C53.6662 47.2178 53.9794 47.3521 54.2658 47.5372C54.5521 47.7222 54.8147 47.946 55.0533 48.2086C55.4948 48.698 55.8409 49.2859 56.0914 49.9722C56.4494 48.9517 56.9148 48.1698 57.4876 47.6267C57.9231 47.2149 58.4034 47.009 58.9284 47.009C58.9523 47.009 58.9761 47.009 59 47.009V47.0985C58.7017 47.1044 58.3914 47.2626 58.0693 47.573C57.7531 47.8774 57.4756 48.2474 57.237 48.6831C56.9983 49.1188 56.7955 49.5724 56.6284 50.0439C56.4673 50.5154 56.3719 50.9242 56.342 51.2704V53.1415C56.342 53.2907 56.3957 53.422 56.5031 53.5354C56.6165 53.6488 56.7537 53.7055 56.9148 53.7055H57.0311V53.795H54.3105V53.7055H54.4269C54.582 53.7055 54.7132 53.6517 54.8206 53.5443C54.934 53.4309 54.9937 53.2966 54.9996 53.1415V51.2614C54.928 50.6168 54.7132 49.9335 54.3553 49.2113C53.9436 48.3757 53.4812 47.7819 52.9681 47.4297C52.6698 47.2208 52.3685 47.1104 52.0642 47.0985V47.009Z" fill="#413A32"/>
<path d="M13.6086 63.5622C13.3699 63.9442 13.2506 64.3351 13.2506 64.735C13.2506 65.1707 13.4087 65.5676 13.7249 65.9257C13.8979 66.1286 14.1157 66.2868 14.3782 66.4002C14.6467 66.5136 14.939 66.5703 15.2552 66.5703C15.5715 66.5703 15.8549 66.5106 16.1054 66.3912C16.6066 66.1465 16.8572 65.7466 16.8572 65.1916C16.8572 64.9827 16.7856 64.7619 16.6424 64.5291C16.5052 64.2963 16.2964 64.0874 16.0159 63.9024L14.4946 62.8818C13.9039 62.5118 13.6086 62.0343 13.6086 61.4494C13.6086 61.3897 13.6115 61.3301 13.6175 61.2704C13.6533 60.8108 13.8353 60.4378 14.1634 60.1513C14.4975 59.8588 14.942 59.7126 15.4969 59.7126C15.837 59.7126 16.2486 59.7425 16.7319 59.8021H17.2868L17.1704 61.1182H17.0899C17.0839 60.8078 16.9646 60.5601 16.7319 60.3751C16.4992 60.1841 16.192 60.0886 15.8101 60.0886C15.3447 60.0886 15.0076 60.2289 14.7988 60.5094C14.6974 60.6526 14.6467 60.8078 14.6467 60.9749C14.6467 61.142 14.6974 61.2853 14.7988 61.4047C14.9003 61.5181 15.0613 61.6434 15.2821 61.7807L16.9556 62.8729C17.2957 63.0937 17.5612 63.3533 17.7521 63.6517C17.9789 64.0039 18.0922 64.365 18.0922 64.735C18.0922 64.9737 18.0415 65.2274 17.9401 65.496C17.8446 65.7586 17.6835 66.0033 17.4568 66.2301C17.2361 66.4569 16.9497 66.6419 16.5977 66.7851C16.2457 66.9284 15.8549 67 15.4253 67C15.0017 67 14.6169 66.9254 14.2708 66.7762C13.6324 66.5076 13.2267 66.0391 13.0537 65.3706C13.0179 65.2274 13 65.0782 13 64.923C13 64.4217 13.176 63.9472 13.528 63.4996L13.6086 63.5622Z" fill="#413A32"/>
<path d="M18.1195 61.9239C17.8271 61.6434 17.681 61.342 17.681 61.0197C17.681 60.769 17.7615 60.5512 17.9226 60.3662C18.2269 60.0081 18.6535 59.829 19.2024 59.829H23.4175C23.68 59.823 23.9097 59.8022 24.1066 59.7663C24.3035 59.7246 24.4288 59.6917 24.4825 59.6679V61.2256H24.393V61.1182C24.393 60.8496 24.3125 60.6318 24.1514 60.4646C23.9903 60.2975 23.7725 60.211 23.4981 60.205H22.2899V65.4602C22.3018 65.675 22.4003 65.8362 22.5852 65.9436C22.6688 65.9913 22.7612 66.0152 22.8627 66.0152H22.979V66.1047H20.2584V66.0152H20.3747C20.5299 66.0152 20.6611 65.9615 20.7685 65.8541C20.8819 65.7466 20.9415 65.6183 20.9475 65.4691V60.205H19.2024C18.9577 60.205 18.743 60.2498 18.558 60.3393C18.1821 60.5184 17.9942 60.7989 17.9942 61.1808C17.9942 61.4076 18.0658 61.6404 18.209 61.8791L18.1195 61.9239Z" fill="#413A32"/>
<path d="M32.736 58.0206C32.8136 58.0206 32.8941 58.0236 32.9777 58.0295V58.1191C32.2736 58.1728 31.7665 58.507 31.4563 59.1218C31.2534 59.5216 31.152 60.0289 31.152 60.6437V63.8398C31.14 64.5918 30.8984 65.1796 30.4271 65.6034C29.9557 66.0212 29.2815 66.2301 28.4045 66.2301C27.5334 66.2301 26.8384 66.0152 26.3193 65.5855C25.8002 65.1498 25.5437 64.5709 25.5496 63.8487V60.3662C25.5496 60.2408 25.5019 60.1364 25.4065 60.0528C25.317 59.9693 25.2066 59.9275 25.0753 59.9275H24.9321V59.838H27.5096V59.9275H27.3664C27.1814 59.9275 27.0442 59.9991 26.9547 60.1423C26.9129 60.208 26.8921 60.2796 26.8921 60.3572V63.7771C26.8921 64.4097 27.0561 64.9111 27.3843 65.2811C27.7124 65.6511 28.145 65.8362 28.6819 65.8362C28.6879 65.8362 28.6909 65.8362 28.6909 65.8362C28.6909 65.8362 28.6939 65.8362 28.6998 65.8362C29.2308 65.8362 29.6664 65.6631 30.0065 65.3169C30.3465 64.9708 30.5166 64.4963 30.5166 63.8935V60.6437C30.5166 59.838 30.7284 59.1993 31.152 58.7278C31.5815 58.2563 32.1096 58.0206 32.736 58.0206Z" fill="#413A32"/>
<path d="M33.8209 59.829C33.9223 59.829 34.1072 59.829 34.3757 59.829C34.6442 59.829 35.1424 59.832 35.8703 59.838C36.9263 59.8499 37.7616 60.1364 38.3761 60.6974C38.9906 61.2525 39.2979 62.0134 39.2979 62.9803C39.2979 63.9412 38.9906 64.7022 38.3761 65.2632C37.7616 65.8242 36.9263 66.1047 35.8703 66.1047H32.6216V66.0152H32.738C32.8871 66.0152 33.0154 65.9645 33.1228 65.863C33.2362 65.7556 33.2988 65.6273 33.3107 65.4781V60.2408C32.6425 60.2886 32.1473 60.4437 31.8251 60.7064C31.664 60.8317 31.5388 60.96 31.4493 61.0913C31.3538 61.2226 31.2613 61.3808 31.1718 61.5658L31.0823 61.53C31.2255 60.9332 31.5238 60.5034 31.9773 60.2408C32.4367 59.9722 33.0512 59.835 33.8209 59.829ZM35.7629 65.7287C36.4013 65.7287 36.9054 65.4811 37.2753 64.9857C37.6512 64.4903 37.8391 63.8189 37.8391 62.9714C37.8391 62.1238 37.6512 61.4554 37.2753 60.966C36.9054 60.4766 36.4072 60.2319 35.7808 60.2319C35.7748 60.2319 35.7688 60.2319 35.7629 60.2319H34.6531V65.7287H35.7629Z" fill="#413A32"/>
<path d="M43.301 66.0152H43.4173V66.1047H40.6967V66.0152H40.8131C40.9682 66.0152 41.0994 65.9615 41.2068 65.8541C41.3202 65.7407 41.3799 65.6064 41.3858 65.4512V60.205L40.5356 60.2408C39.9748 60.2647 39.6944 60.4736 39.6944 60.8675C39.6944 61.0286 39.7481 61.1659 39.8555 61.2793C39.9688 61.3868 40.124 61.4405 40.3209 61.4405C40.3387 61.4405 40.3566 61.4405 40.3745 61.4405V61.4942C40.2552 61.536 40.1538 61.5568 40.0703 61.5568C39.8018 61.5568 39.5959 61.4614 39.4528 61.2704C39.3513 61.1391 39.3006 60.9899 39.3006 60.8227C39.3006 60.5601 39.405 60.3453 39.6138 60.1782C39.8167 60.0051 40.1329 59.9036 40.5625 59.8738C40.64 59.8678 40.8906 59.8559 41.3142 59.838C42.2808 59.8021 42.9818 59.7425 43.4173 59.6589L43.4352 59.7484C43.1787 59.7902 42.9967 59.8768 42.8893 60.0081C42.7879 60.1394 42.7342 60.3333 42.7282 60.59V65.4512C42.7342 65.6064 42.7909 65.7407 42.8983 65.8541C43.0116 65.9615 43.1459 66.0152 43.301 66.0152Z" fill="#413A32"/>
<path d="M46.5633 62.103C46.4559 61.8762 46.4022 61.6613 46.4022 61.4584C46.4022 61.2495 46.429 61.0585 46.4827 60.8854C46.5364 60.7064 46.6259 60.5333 46.7512 60.3662C46.8765 60.1931 47.0525 60.0498 47.2792 59.9364C47.5895 59.7753 47.9624 59.6947 48.3979 59.6947C48.9707 59.6947 49.5136 59.8409 50.0267 60.1334C50.7009 60.5154 51.1692 61.0436 51.4317 61.718C51.5809 62.088 51.6555 62.4849 51.6555 62.9087C51.6555 63.9054 51.2945 64.7081 50.5726 65.3169C49.8566 65.9257 48.9199 66.2301 47.7625 66.2301C46.611 66.2301 45.6713 65.9257 44.9434 65.3169C44.2215 64.7081 43.8605 63.9084 43.8605 62.9176C43.8605 62.1776 44.0694 61.536 44.487 60.9928C44.9106 60.4437 45.4804 60.0707 46.1963 59.8738L46.25 59.9543C45.9458 60.211 45.7161 60.587 45.5609 61.0824C45.4058 61.5777 45.3283 62.1119 45.3283 62.6849C45.3283 63.6517 45.552 64.4217 45.9995 64.9946C46.4469 65.5676 47.0316 65.8541 47.7535 65.8541C48.4814 65.8541 49.0661 65.5855 49.5076 65.0483C49.9551 64.5052 50.1788 63.789 50.1788 62.8997C50.1788 62.3626 50.0953 61.8791 49.9282 61.4494C49.7672 61.0137 49.5315 60.6795 49.2212 60.4467C48.911 60.208 48.5649 60.0886 48.1831 60.0886C47.7595 60.0886 47.4164 60.199 47.1539 60.4199C46.784 60.7362 46.5991 61.1391 46.5991 61.6285C46.5991 61.7836 46.6199 61.9418 46.6617 62.103H46.5633Z" fill="#413A32"/>
</svg>
